<mxfile host="app.diagrams.net" modified="2024-03-02T12:55:27.952Z" agent="Mozilla/5.0 (Windows NT 10.0; Win64; x64) AppleWebKit/537.36 (KHTML, like Gecko) Chrome/122.0.0.0 Safari/537.36 Edg/122.0.0.0" etag="6BVTWxJ2sCVt1YZsZBPC" version="24.0.0" type="github">
  <diagram name="페이지-1" id="7eS4kyV_Mds_Okzxv6tP">
    <mxGraphModel dx="513" dy="976" grid="0" gridSize="10" guides="1" tooltips="1" connect="1" arrows="1" fold="1" page="0" pageScale="1" pageWidth="827" pageHeight="1169" math="0" shadow="0">
      <root>
        <mxCell id="0" />
        <mxCell id="1" parent="0" />
        <mxCell id="xsXzxzbmuRNSx5mJsbQE-1" value="고&lt;span style=&quot;background-color: initial;&quot;&gt;객&lt;/span&gt;" style="whiteSpace=wrap;html=1;align=center;" vertex="1" parent="1">
          <mxGeometry x="33" y="54" width="100" height="40" as="geometry" />
        </mxCell>
        <mxCell id="xsXzxzbmuRNSx5mJsbQE-2" value="고객명" style="ellipse;whiteSpace=wrap;html=1;align=center;" vertex="1" parent="1">
          <mxGeometry x="22" y="-23" width="103" height="42" as="geometry" />
        </mxCell>
        <mxCell id="xsXzxzbmuRNSx5mJsbQE-3" value="" style="endArrow=none;html=1;rounded=0;fontSize=12;startSize=8;endSize=8;curved=1;entryX=0.82;entryY=0.045;entryDx=0;entryDy=0;entryPerimeter=0;" edge="1" parent="1" source="xsXzxzbmuRNSx5mJsbQE-2" target="xsXzxzbmuRNSx5mJsbQE-1">
          <mxGeometry relative="1" as="geometry">
            <mxPoint x="120" y="200" as="sourcePoint" />
            <mxPoint x="280" y="200" as="targetPoint" />
          </mxGeometry>
        </mxCell>
      </root>
    </mxGraphModel>
  </diagram>
</mxfile>
